HIERARCHY
ROOT Hips
{
  OFFSET 0 0 0
  CHANNELS 6 Xposition Yposition Zposition Zrotation Xrotation Yrotation
  JOINT LeftUpLeg
  {
    OFFSET 4.06525 -3.90732 0.41711
    CHANNELS 3 Zrotation Xrotation Yrotation
    JOINT LeftLeg
    {
      OFFSET 0.00023 -18.4821 0.00367
      CHANNELS 3 Zrotation Xrotation Yrotation
      JOINT LeftFoot
      {
        OFFSET -0.00172 -15.2898 -0.02629
        CHANNELS 3 Zrotation Xrotation Yrotation
        JOINT LeftToeBase
        {
          OFFSET 0.36743 -3.19131 5.54287
          CHANNELS 3 Zrotation Xrotation Yrotation
          JOINT LeftToeBase2
          {
            OFFSET 0.08751 0.04849 1.36758
            CHANNELS 3 Zrotation Xrotation Yrotation
            JOINT LeftToeBase3
            {
              OFFSET 0.07484 0.06785 1.16707
            }
          }
        }
      }
    }
  }
  JOINT RightUpLeg
  {
    OFFSET -4.06526 -3.90731 0.41712
    CHANNELS 3 Zrotation Xrotation Yrotation
    JOINT RightLeg
    {
      OFFSET -0.00029 -18.4821 0.0044
      CHANNELS 3 Zrotation Xrotation Yrotation
      JOINT RightFoot
      {
        OFFSET 0.0016 -15.2898 -0.02569
        CHANNELS 3 Zrotation Xrotation Yrotation
        JOINT RightToeBase
        {
          OFFSET -0.3542 -3.19109 5.54386
          CHANNELS 3 Zrotation Xrotation Yrotation
          JOINT RightToeBase2
          {
            OFFSET -0.08424 0.04854 1.36778
            CHANNELS 3 Zrotation Xrotation Yrotation
            JOINT RightToeBase3
            {
              OFFSET -0.07205 0.0679 1.16725
            }
          }
        }
      }
    }
  }
  JOINT Spine
  {
    OFFSET 1e-005 4.46517 -0.10224
    CHANNELS 3 Zrotation Xrotation Yrotation
    JOINT Spine1
    {
      OFFSET 1e-005 4.46212 -0.1824
      CHANNELS 3 Zrotation Xrotation Yrotation
      JOINT Spine2
      {
        OFFSET 0 4.37937 -0.881
        CHANNELS 3 Zrotation Xrotation Yrotation
        JOINT Spine3
        {
          OFFSET 1e-005 4.68286 0.21414
          CHANNELS 3 Zrotation Xrotation Yrotation
          JOINT Neck
          {
            OFFSET 0 1.76964 0.82454
            CHANNELS 3 Zrotation Xrotation Yrotation
            JOINT Head
            {
              OFFSET 0 1.6961 0.93145
              CHANNELS 3 Zrotation Xrotation Yrotation
              JOINT Head_End
              {
                OFFSET 1e-005 7.8375 1.52603
              }
            }
          }
          JOINT LeftShoulder
          {
            OFFSET 1.19381 -0.75881 -0.02768
            CHANNELS 3 Zrotation Xrotation Yrotation
            JOINT LeftArm
            {
              OFFSET 5.18779 -2e-005 1e-005
              CHANNELS 3 Zrotation Xrotation Yrotation
              JOINT LeftForeArm
              {
                OFFSET 12.7364 -4e-005 2e-005
                CHANNELS 3 Zrotation Xrotation Yrotation
                JOINT LeftHand
                {
                  OFFSET 9.21452 -2e-005 1e-005
                  CHANNELS 3 Zrotation Xrotation Yrotation
                }
              }
            }
          }
          JOINT RightShoulder
          {
            OFFSET -1.19381 -0.75881 -0.02767
            CHANNELS 3 Zrotation Xrotation Yrotation
            JOINT RightArm
            {
              OFFSET -5.18779 1e-005 -1e-005
              CHANNELS 3 Zrotation Xrotation Yrotation
              JOINT RightForeArm
              {
                OFFSET -12.7364 3e-005 -2e-005
                CHANNELS 3 Zrotation Xrotation Yrotation
                JOINT RightHand
                {
                  OFFSET -9.21452 2e-005 -1e-005
                  CHANNELS 3 Zrotation Xrotation Yrotation
                }
              }
            }
          }
        }
      }
    }
  }
}
MOTION
Frames: 14
Frame Time: 	0.0166667
1.26449e-008 40.9449 3.14676e-008 2.08294 -4.2502 0.15444 1.84312 0.0330822 1.36138  2.5352 12.6401 9.27961  -7.64753 -7.11319 0.155689  -2.44769e-006 -4.05562e-007 -4.54931e-009  -0 0 -0   -9.91122 -3.66678 -10.501  1.34043 19.2237 5.60646  3.98489 -10.4039 0.387209  0.0110534 -0.002196 1.29362e-009  -0 0 -0   -1.35621 2.33787 0.20613  0.0813426 0.837593 0.0760193  0.08121 0.837368 0.0774833  0.0810603 0.837143 0.0789482  2.37937e-013 7.67309e-014 1.04138e-013  -0.748643 4.54303 -0.706122   0.122549 -0.0247596 3.52784  -56.971 41.5382 -18.6207  5.34656 7.56938 -30.748  -21.1345 -0.569467 7.7703  0.278176 -0.134402 -3.40664  61.5159 28.0331 13.4118  -15.999 22.159 36.7399  18.93 -0.174633 -3.47472 
0.0224685 40.9452 -0.0140544 2.07197 -4.19265 0.116897 1.75991 -0.0954814 1.17857  2.62622 12.7156 9.56182  -7.69777 -7.09229 0.161577  -2.44769e-006 -4.05562e-007 -4.54931e-009  -0 0 -0   -9.95704 -3.73153 -10.5046  1.36279 19.1659 5.6681  4.01043 -10.3378 0.377795  0.0110534 -0.002196 1.29362e-009  -0 0 -0   -1.29429 2.34782 0.215936  0.0813426 0.837593 0.0760193  0.08121 0.837368 0.0774833  0.0810603 0.837143 0.0789482  2.37937e-013 7.67309e-014 1.04138e-013  -0.792614 4.46601 -0.66106   0.122549 -0.0247596 3.52784  -56.9668 41.6039 -18.6404  5.29809 7.46907 -30.7761  -21.1424 -0.569458 7.77751  0.268872 -0.134402 -3.40664  61.5155 27.947 13.4418  -15.884 22.053 36.653  18.8873 -0.174622 -3.53284 
0.0359611 40.9457 -0.0222553 2.05795 -4.15023 0.0947599 1.71931 -0.181526 1.05611  2.6922 12.7565 9.74149  -7.74252 -7.07113 0.167851  -2.44769e-006 -4.05562e-007 -4.54931e-009  -0 0 -0   -9.96536 -3.77362 -10.461  1.36877 19.1167 5.65937  4.03832 -10.2926 0.371018  0.0110534 -0.002196 1.29362e-009  -0 0 -0   -1.25507 2.35356 0.220144  0.0813426 0.837593 0.0760193  0.08121 0.837368 0.0774833  0.0810603 0.837143 0.0789482  2.37937e-013 7.67309e-014 1.04138e-013  -0.825496 4.39935 -0.619007   0.122549 -0.0247596 3.52784  -56.9378 41.6763 -18.6636  5.25179 7.37075 -30.8092  -21.1551 -0.569442 7.78912  0.262489 -0.134402 -3.40664  61.5404 27.8631 13.4532  -15.7913 21.9768 36.5716  18.8493 -0.174614 -3.57719 
0.021146 40.9474 -0.0118777 2.0275 -4.15655 0.1198 1.82229 -0.128132 1.11852  2.68452 12.6799 9.59606  -7.77655 -7.04478 0.176684  -2.44769e-006 -4.05562e-007 -4.54931e-009  -0 0 -0   -9.84361 -3.73294 -10.2575  1.32474 19.0738 5.41633  4.07413 -10.3025 0.372832  0.0110534 -0.002196 1.29362e-009  -0 0 -0   -1.28068 2.34746 0.206438  0.0813331 0.844791 0.0760194  0.0812003 0.84457 0.0774834  0.0810504 0.844347 0.0789484  2.37937e-013 7.67309e-014 1.04138e-013  -0.825522 4.36295 -0.585299   0.122549 -0.0247596 3.52784  -56.8506 41.7779 -18.6686  5.20919 7.27338 -30.8565  -21.1798 -0.56941 7.81277  0.260905 -0.134402 -3.40664  61.6482 27.7753 13.4044  -15.7548 21.9865 36.4995  18.8225 -0.174613 -3.58064 
-1.59443e-005 40.9481 0.00237032 2.01057 -4.17035 0.158288 1.93604 -0.0567662 1.23532  2.64837 12.5974 9.38413  -7.7935 -7.02883 0.182837  -2.44769e-006 -4.05562e-007 -4.54931e-009  -0 0 -0   -9.71978 -3.69893 -10.0422  1.26614 19.0781 5.14918  4.11078 -10.3468 0.378168  0.0110534 -0.002196 1.29362e-009  -0 0 -0   -1.33586 2.3355 0.189585  0.0813227 0.852621 0.0760196  0.0811897 0.852396 0.0774836  0.0810396 0.85217 0.0789485  2.37937e-013 7.67309e-014 1.04138e-013  -0.813693 4.33852 -0.555217   0.122549 -0.0247596 3.52784  -56.7495 41.8798 -18.6703  5.17466 7.18783 -30.9111  -21.2129 -0.573955 7.84316  0.260975 -0.134402 -3.40664  61.765 27.7097 13.3476  -15.7497 22.0339 36.4461  18.8054 -0.174615 -3.56938 
-0.0106626 40.945 0.00833518 2.04842 -4.148 0.185644 1.93581 -0.0890219 1.31805  2.60908 12.6186 9.32201  -7.77657 -7.04312 0.17979  -2.44769e-006 -4.05562e-007 -4.54931e-009  -0 0 -0   -9.71676 -3.77963 -9.9318  1.21257 19.2109 5.0331  4.14765 -10.4325 0.382334  0.0110534 -0.002196 1.29362e-009  -0 0 -0   -1.41029 2.31347 0.182702  0.0813268 0.856086 0.0754346  0.0811936 0.855856 0.0769094  0.0810432 0.855625 0.0783852  2.37937e-013 7.67309e-014 1.04138e-013  -0.803984 4.31214 -0.527243   0.122549 -0.0247596 3.52784  -56.6613 41.9605 -18.686  5.15252 7.12124 -30.9744  -21.2565 -0.579939 7.88293  0.262283 -0.134402 -3.40664  61.8322 27.6933 13.3257  -15.7657 22.0857 36.425  18.8011 -0.174616 -3.5644 
-0.0148431 40.9414 0.0110981 2.09376 -4.13022 0.206294 1.89896 -0.127618 1.36713  2.57748 12.6651 9.31416  -7.75122 -7.0702 0.173527  -2.44769e-006 -4.05562e-007 -4.54931e-009  -0 0 -0   -9.7574 -3.85996 -9.90592  1.17826 19.3488 5.0098  4.16979 -10.5106 0.383898  0.0110534 -0.002196 1.29362e-009  -0 0 -0   -1.47103 2.30432 0.178398  0.0759759 0.858446 0.0747546  0.0758386 0.858212 0.0762395  0.0756838 0.857977 0.0777252  2.37937e-013 7.67309e-014 1.04138e-013  -0.795692 4.29057 -0.497366   0.122549 -0.0247596 3.52784  -56.5972 42.0176 -18.698  5.14472 7.08369 -31.0303  -21.3042 -0.585739 7.91595  0.264408 -0.134402 -3.40664  61.8623 27.7188 13.3231  -15.8049 22.1537 36.429  18.7986 -0.174618 -3.55426 
-0.00792135 40.9401 0.0108908 2.10512 -4.158 0.212477 1.8592 -0.0976527 1.32913  2.58247 12.696 9.35285  -7.7416 -7.10407 0.167483  -2.44769e-006 -4.05562e-007 -4.54931e-009  -0 0 -0   -9.81077 -3.83202 -10.0284  1.19925 19.3681 5.12019  4.15051 -10.5172 0.384649  0.0110534 -0.002196 1.29362e-009  -0 0 -0   -1.46283 2.34287 0.173892  0.0663977 0.858992 0.0740367  0.066249 0.858757 0.0755313  0.0660828 0.858522 0.0770266  2.37937e-013 7.67309e-014 1.04138e-013  -0.793749 4.27441 -0.458946   0.122549 -0.0247596 3.52784  -56.5869 42.0362 -18.6927  5.15499 7.0911 -31.0584  -21.3471 -0.589185 7.92236  0.266933 -0.134402 -3.40664  61.8352 27.8009 13.3464  -15.866 22.2383 36.455  18.7974 -0.174622 -3.53212 
0.000781089 40.9398 0.009921 2.1083 -4.19074 0.216449 1.82253 -0.0535273 1.27718  2.59546 12.7092 9.39059  -7.735 -7.13027 0.162713  -2.44769e-006 -4.05562e-007 -4.54931e-009  -0 0 -0   -9.86069 -3.78266 -10.1626  1.22981 19.3524 5.24028  4.12696 -10.5037 0.384809  0.0110534 -0.002196 1.29362e-009  -0 0 -0   -1.4424 2.38926 0.16874  0.0575021 0.858748 0.0733378  0.057339 0.858515 0.0748422  0.0571583 0.858281 0.0763473  2.37937e-013 7.67309e-014 1.04138e-013  -0.795493 4.26831 -0.418381   0.122549 -0.0247596 3.52784  -56.6028 42.0323 -18.6742  5.18198 7.133 -31.0737  -21.3943 -0.591943 7.91617  0.26944 -0.134402 -3.40664  61.7899 27.9001 13.3729  -15.9504 22.3413 36.5037  18.7994 -0.174627 -3.5052 
0.00125179 40.9402 0.0109951 2.11907 -4.19381 0.230375 1.81068 -0.0286056 1.27994  2.59421 12.6765 9.3609  -7.72633 -7.12364 0.162656  -2.44769e-006 -4.05562e-007 -4.54931e-009  -0 0 -0   -9.87294 -3.77474 -10.1591  1.22741 19.3513 5.22707  4.13533 -10.5062 0.384584  0.0110534 -0.002196 1.29362e-009  -0 0 -0   -1.45831 2.40829 0.159766  0.055333 0.858193 0.0727147  0.0551529 0.857961 0.0742297  0.0549554 0.857728 0.0757452  2.37937e-013 7.67309e-014 1.04138e-013  -0.798297 4.28225 -0.378522   0.122549 -0.0247596 3.52784  -56.6261 42.0189 -18.6381  5.22462 7.20428 -31.0854  -21.4531 -0.595078 7.90433  0.271508 -0.134402 -3.40664  61.7609 27.9868 13.3774  -16.0712 22.4758 36.5851  18.8083 -0.173303 -3.47596 
0.000123444 40.941 0.0125595 2.12711 -4.19084 0.246859 1.81273 -0.0110973 1.29691  2.58864 12.6357 9.31327  -7.71704 -7.1103 0.162418  -2.44769e-006 -4.05562e-007 -4.54931e-009  -0 0 -0   -9.87083 -3.77224 -10.1204  1.21854 19.3426 5.17887  4.15152 -10.507 0.384113  0.0110534 -0.002196 1.29362e-009  -0 0 -0   -1.47968 2.42083 0.152615  0.0543184 0.857805 0.0722245  0.0541294 0.857573 0.0737512  0.0539229 0.85734 0.0752784  2.37937e-013 7.67309e-014 1.04138e-013  -0.801707 4.30081 -0.343354   0.122549 -0.0247596 3.52784  -56.6592 41.9904 -18.596  5.2827 7.30485 -31.0903  -21.5202 -0.598459 7.88814  0.272721 -0.134402 -3.40664  61.7415 28.0455 13.374  -16.1921 22.6084 36.6681  18.8125 -0.172504 -3.4518 
0.00111928 40.9419 0.014127 2.1243 -4.18594 0.261541 1.82036 -0.00209156 1.31157  2.58002 12.6196 9.27543  -7.70562 -7.11132 0.162069  -2.44769e-006 -4.05562e-007 -4.54931e-009  -0 0 -0   -9.86408 -3.75705 -10.1047  1.2176 19.3146 5.15058  4.16176 -10.497 0.383544  0.0110534 -0.002196 1.29362e-009  -0 0 -0   -1.48792 2.43621 0.153189  0.053575 0.857061 0.0719241  0.05338 0.856826 0.0734642  0.0531675 0.856588 0.0750046  2.37937e-013 7.67309e-014 1.04138e-013  -0.805087 4.31186 -0.318489   0.122549 -0.0247596 3.52784  -56.7059 41.9458 -18.5584  5.35336 7.43293 -31.0864  -21.5922 -0.602109 7.87236  0.273242 -0.134402 -3.40664  61.7381 28.0434 13.3655  -16.2866 22.7176 36.7277  18.7975 -0.171916 -3.44196 
0.00296962 40.9426 0.0152538 2.11949 -4.18492 0.277475 1.82457 0.00363796 1.32072  2.57207 12.6147 9.24626  -7.69436 -7.11675 0.161636  -2.44769e-006 -4.05562e-007 -4.54931e-009  -0 0 -0   -9.85929 -3.73831 -10.0964  1.21823 19.2859 5.1294  4.17127 -10.4864 0.38305  0.0110534 -0.002196 1.29362e-009  -0 0 -0   -1.49462 2.45384 0.157449  0.0533535 0.856328 0.0718705  0.0531547 0.856087 0.073426  0.0529383 0.855844 0.0749819  2.37937e-013 7.67309e-014 1.04138e-013  -0.808282 4.31558 -0.301919   0.122549 -0.0247596 3.52784  -56.7605 41.8834 -18.5243  5.43848 7.58851 -31.0795  -21.6757 -0.606334 7.8536  0.273469 -0.134402 -3.40664  61.7461 28.0025 13.3608  -16.3375 22.7818 36.7546  18.7728 -0.171512 -3.44338 
0.00602895 40.9426 0.0151852 2.11941 -4.19351 0.297071 1.81888 0.00905641 1.31066  2.56987 12.6255 9.23987  -7.686 -7.12684 0.161148  -2.44769e-006 -4.05562e-007 -4.54931e-009  -0 0 -0   -9.86516 -3.71731 -10.1002  1.21879 19.2721 5.12189  4.18125 -10.4823 0.382802  0.0110534 -0.002196 1.29362e-009  -0 0 -0   -1.50293 2.47782 0.163281  0.0538962 0.857421 0.0725665  0.053695 0.857174 0.0741441  0.0534758 0.856925 0.075722  2.37937e-013 7.67309e-014 1.04138e-013  -0.810905 4.30455 -0.2954   0.122549 -0.0247596 3.52784  -56.8211 41.7992 -18.4941  5.54083 7.77434 -31.0749  -21.7786 -0.611361 7.82885  0.273333 -0.134402 -3.40664  61.7675 27.9219 13.3703  -16.3135 22.7702 36.7249  18.7455 -0.171262 -3.45384 
